<?xml version="1.0" encoding="utf-8"?>
<!-- Generator: Adobe Illustrator 25.1.0, SVG Export Plug-In . SVG Version: 6.00 Build 0)  -->
<svg version="1.1" id="Capa_1" xmlns="http://www.w3.org/2000/svg" xmlns:xlink="http://www.w3.org/1999/xlink" x="0px" y="0px"
	 viewBox="0 0 200 200" style="enable-background:new 0 0 200 200;" xml:space="preserve">
<style type="text/css">
	.st0{fill:#0010A3;}
</style>
<path class="st0" d="M51.5,55.9C28,55.9,9.8,75.6,9.8,100s19.1,44.1,42.6,44.1c10.9,0,19.3-2.4,28.3-11.1l4-4.2l14.1-15.1l17.8-19.2
	c6.8-7.2,19.6-21.3,33.1-21.3c13.1,0,23,12.4,23,25.3s-9.3,27.4-25.3,27.4c-11.5,0-20.5-11-20.5-11L115,127.7c0,0,0,0.1,5.5,5.2
	s17,10.5,27.5,10.5c23.4,0,42.3-19.6,42.3-43.8s-19-43.8-42.3-43.8c-8.6,0-17,2.7-24,7.7c-4.7,2.6-15.2,13.5-24.3,23.5
	c0,0-10.2,11.1-11.2,12.2c-4.4,4.9-20.7,26.4-36.7,26.4c-13.1,0-23.4-13.5-23.4-26.3s3.9-20.8,16.4-25.6c14.8-5.2,29.4,8.5,29.4,8.5
	L86.3,69C86.3,69,76.5,55.9,51.5,55.9z"/>
</svg>
