<?xml version="1.0" encoding="utf-8"?>
<!-- Generator: Adobe Illustrator 25.1.0, SVG Export Plug-In . SVG Version: 6.00 Build 0)  -->
<svg version="1.1" id="Capa_1" xmlns="http://www.w3.org/2000/svg" xmlns:xlink="http://www.w3.org/1999/xlink" x="0px" y="0px"
	 viewBox="0 0 200 200" style="enable-background:new 0 0 200 200;" xml:space="preserve">
<style type="text/css">
	.st0{fill:#0010A3;}
</style>
<path class="st0" d="M111.5,57.2c19.3,0,38.6,12.4,38.6,33.8c12.3,2.1,21.7,14.5,21.7,26.1c0,12.3-12.3,25.6-31.3,25.6l-78.6-0.1
	c-46.1,0-42.2-60.6-4-60.6c3.7,0,7.3,0.5,10.8,1.5c2.8,0.7,5.8-0.8,6.8-3.5C82,64.4,96.8,57.2,111.5,57.2 M111.6,42.9L111.6,42.9
	c-19.9,0-36.7,9.7-45.9,25.5c-2.6-0.4-5.1-0.6-7.7-0.6C45,67.8,33.5,72.8,25.4,82c-7.3,8.4-11.4,19.2-11.3,30.4
	c-0.1,11.5,4.3,22.6,12.2,30.9c6.1,6.3,17.2,13.8,35.5,13.8l78.6,0.1c28,0,45.4-20.8,45.4-40c0-15.3-9.6-29.9-22.8-36.7
	c-2.3-10.2-8.1-19.2-16.3-25.6C136.7,47,124.3,42.8,111.6,42.9L111.6,42.9z"/>
</svg>
