<?xml version="1.0" encoding="utf-8"?>
<!-- Generator: Adobe Illustrator 25.1.0, SVG Export Plug-In . SVG Version: 6.00 Build 0)  -->
<svg version="1.1" id="Capa_1" xmlns="http://www.w3.org/2000/svg" xmlns:xlink="http://www.w3.org/1999/xlink" x="0px" y="0px"
	 viewBox="0 0 200 200" style="enable-background:new 0 0 200 200;" xml:space="preserve">
<style type="text/css">
	.st0{fill:#0010A3;}
</style>
<g>
	<path class="st0" d="M158,37.5H42c-2.8,0.1-4.9,2.4-4.9,5.1c0,0,0,0,0,0v114.7c-0.1,2.8,2.1,5.1,4.8,5.2c0,0,0,0,0,0H158
		c2.8-0.1,4.9-2.4,4.9-5.1c0,0,0,0,0,0V42.7C163,39.9,160.8,37.6,158,37.5C158.1,37.5,158,37.5,158,37.5z M46.8,86.1h106.4v27.9
		H46.8V86.1z M46.8,47.8h106.4v27.9H46.8V47.8z M153.2,152.2H46.8v-27.9h106.4V152.2z"/>
	<ellipse class="st0" cx="54" cy="61.8" rx="6.1" ry="6.2"/>
	<path class="st0" d="M80,58.9h38.2c0.8,0,1.5,0.7,1.5,1.5v2.6c0,0.8-0.7,1.5-1.5,1.5H80c-0.8,0-1.5-0.7-1.5-1.5v-2.6
		C78.5,59.6,79.1,58.9,80,58.9z"/>
	<ellipse class="st0" cx="54" cy="100" rx="6.1" ry="6.2"/>
	<path class="st0" d="M80,97.2h38.2c0.8,0,1.5,0.7,1.5,1.5v2.6c0,0.8-0.7,1.5-1.5,1.5H80c-0.8,0-1.5-0.7-1.5-1.5v-2.6
		C78.5,97.9,79.1,97.2,80,97.2z"/>
	<ellipse class="st0" cx="54" cy="138.2" rx="6.1" ry="6.2"/>
	<path class="st0" d="M80,135.4h38.2c0.8,0,1.5,0.7,1.5,1.5v2.6c0,0.8-0.7,1.5-1.5,1.5H80c-0.8,0-1.5-0.7-1.5-1.5v-2.6
		C78.5,136.1,79.1,135.4,80,135.4z"/>
</g>
</svg>
