<?xml version="1.0" encoding="utf-8"?>
<!-- Generator: Adobe Illustrator 25.1.0, SVG Export Plug-In . SVG Version: 6.00 Build 0)  -->
<svg version="1.1" id="Capa_1" xmlns="http://www.w3.org/2000/svg" xmlns:xlink="http://www.w3.org/1999/xlink" x="0px" y="0px"
	 viewBox="0 0 200 200" style="enable-background:new 0 0 200 200;" xml:space="preserve">
<style type="text/css">
	.st0{fill:#0010A3;}
</style>
<path class="st0" d="M174,41.7c-3.9,0-7.1,3.2-7.1,7.1v27.5c-3.6-5.1-7.9-9.7-12.8-13.7c-13.8-11.2-32.1-16.9-54.2-16.9
	c-30.5,0-52.6,10.5-66.9,31.9V48.8c0-3.9-3.2-7.1-7.1-7.1c-3.9,0-7.1,3.2-7.1,7.1V128c0,16.7,12.4,30.3,27.5,30.3h104.9
	c16.4,0,29.7-14.7,29.7-32.7V48.8C181.1,44.9,177.9,41.7,174,41.7z M166.9,125.5c0,10.3-7,18.6-15.6,18.6H46.5
	c-7.4,0-13.4-7.3-13.4-16.2v-5.5c0-8,1.5-15.8,4.5-23.2C45.1,81,59.1,59.9,100,59.9c32.8,0,54.2,13.7,63.6,40.8
	c2.2,6.4,3.3,13.2,3.3,20V125.5L166.9,125.5z"/>
<path class="st0" d="M68.2,89c-11.8,0-21.4,9.6-21.4,21.4s9.6,21.4,21.4,21.4c11.8,0,21.4-9.6,21.4-21.4c0,0,0,0,0,0
	C89.6,98.6,80,89,68.2,89z M68.2,121.1c-5.9,0.2-10.8-4.5-11-10.4c-0.2-5.9,4.5-10.8,10.4-11c0.2,0,0.4,0,0.7,0l0,0
	c5.9,0,10.7,4.8,10.7,10.7S74.1,121.2,68.2,121.1C68.2,121.2,68.2,121.2,68.2,121.1L68.2,121.1z"/>
<path class="st0" d="M131.8,89c-11.8,0-21.4,9.6-21.4,21.4s9.6,21.4,21.4,21.4s21.4-9.6,21.4-21.4l0,0C153.2,98.6,143.6,89,131.8,89
	z M131.8,121.1c-5.9,0.2-10.8-4.5-11-10.4s4.5-10.8,10.4-11c0.2,0,0.4,0,0.7,0l0,0c5.9,0,10.7,4.8,10.7,10.7
	C142.5,116.4,137.7,121.2,131.8,121.1L131.8,121.1z"/>
</svg>
